<svg xmlns="http://www.w3.org/2000/svg" width="103.947" height="21.568" viewBox="0 0 103.947 21.568">
  <g id="Group_623" data-name="Group 623" transform="translate(-795.128 -1989.432)">
    <path id="Path_16577" data-name="Path 16577" d="M1.4-17.5V0H4.5V-1.75h.35A4.267,4.267,0,0,0,8.8.35c3.1,0,5.7-2.75,5.7-6.55s-2.6-6.55-5.7-6.55a4.267,4.267,0,0,0-3.95,2.1h-.3V-17.5ZM7.95-9.95c1.9,0,3.4,1.35,3.4,3.75s-1.5,3.75-3.4,3.75c-1.95,0-3.4-1.4-3.4-3.75S6-9.95,7.95-9.95ZM15.8-6.3A6.3,6.3,0,0,0,22.175.35,6.144,6.144,0,0,0,27.8-2.7L25.225-4.2a3.253,3.253,0,0,1-3.1,1.85,3.017,3.017,0,0,1-3.1-2.925H28.05V-6.5c0-3.725-2.425-6.25-6.025-6.25A6.1,6.1,0,0,0,15.8-6.3Zm3.25-1.175A2.777,2.777,0,0,1,22-10.05a2.729,2.729,0,0,1,2.85,2.575ZM28.575-12.4v2.7h3.15v7.3A2.352,2.352,0,0,0,34.175,0h3.4V-2.7h-2c-.45,0-.7-.25-.7-.75V-9.7h3.4v-2.7h-3.4v-3.85h-3.15v3.85Zm11.4,2.85,2.55,1.65a3.811,3.811,0,0,1,3.45-2.15c1.7,0,2.6.925,2.6,2.1v.3l-4.75.525c-2.375.25-4.1,1.625-4.1,3.6,0,2.375,1.85,3.875,4.65,3.875,2.625,0,3.5-1.275,3.9-2.1h.35V0h3.1V-7.925c0-2.9-2.2-4.825-5.575-4.825A7.267,7.267,0,0,0,39.975-9.55Zm3.05,5.85c0-.725.575-1.15,1.75-1.3l3.8-.45v.2c0,1.7-1.225,3-3.425,3C43.75-2.25,43.025-2.85,43.025-3.7Zm24.25-8.7h-4.4l-5.05,4.25h-.3V-17.5h-3.15V0h3.15V-4.275l1.9-1.575,4,5.85h3.65L61.65-7.725Zm4.6,0h-3.15V0h3.15Zm1.5,0v2.7h3.15v7.3A2.352,2.352,0,0,0,78.975,0h3.4V-2.7h-2c-.45,0-.7-.25-.7-.75V-9.7h3.4v-2.7h-3.4v-3.85h-3.15v3.85Z" transform="translate(816 2010)" fill="#fff"/>
    <g id="Group_544" data-name="Group 544" transform="translate(795.128 1989.432)">
      <path id="Path_16574" data-name="Path 16574" d="M16,16.088l4.718,2.7V13.392l4.718-2.726L20.718,8,16,10.7Z" transform="translate(-16 -2.608)" fill="#fff" fill-rule="evenodd"/>
      <path id="Path_16575" data-name="Path 16575" d="M2,8.088l4.718,2.7V5.392l4.717-2.7L6.717,0,2,2.7Z" transform="translate(7.437)" fill="#fff" fill-rule="evenodd"/>
      <path id="Path_16576" data-name="Path 16576" d="M2,24.088l4.718,2.7V21.392l4.718-2.7L6.718,16,2,18.7Z" transform="translate(7.437 -5.216)" fill="#fff" fill-rule="evenodd"/>
    </g>
  </g>
</svg>
